<svg width="800" height="600" viewBox="0 0 800 600" xmlns="http://www.w3.org/2000/svg">
  <!-- Gradients -->
  <defs>
    <linearGradient id="sidebarGradient" x1="0" y1="0" x2="0" y2="1">
      <stop offset="0%" stopColor="#1E293B"/>
      <stop offset="100%" stopColor="#0F172A"/>
    </linearGradient>
    <linearGradient id="cardGradient" x1="0" y1="0" x2="1" y2="1">
      <stop offset="0%" stopColor="#EFF6FF"/>
      <stop offset="100%" stopColor="#BFDBFE"/>
    </linearGradient>
    <linearGradient id="accentGradient" x1="0" y1="0" x2="1" y2="1">
      <stop offset="0%" stopColor="#3B82F6"/>
      <stop offset="100%" stopColor="#2563EB"/>
    </linearGradient>
  </defs>

  <!-- Background with subtle curve -->
  <path d="M0 0 h800 v500 q-400 100 -800 0 Z" fill="#F8FAFC"/>
  
  <!-- Sidebar with gradient -->
  <path d="M0 0 h200 v600 h-200 Z" fill="url(#sidebarGradient)" rx="12"/>
  <circle cx="40" cy="40" r="20" fill="url(#accentGradient)"/>
  <rect x="30" y="100" width="140" height="8" fill="#64748B" rx="4" opacity="0.8"/>
  <rect x="30" y="130" width="120" height="8" fill="#64748B" rx="4" opacity="0.8"/>
  <rect x="30" y="160" width="160" height="8" fill="#64748B" rx="4" opacity="0.8"/>
  
  <!-- Main Content -->
  <g transform="translate(240, 40)">
    <!-- Header Card -->
    <rect width="520" height="60" fill="white" rx="8" filter="drop-shadow(0 4px 6px rgba(0, 0, 0, 0.1))"/>
    <rect x="20" y="20" width="200" height="20" fill="#E2E8F0" rx="4"/>
    
    <!-- Content Cards -->
    <g transform="translate(0, 80)">
      <!-- Left Card -->
      <rect width="250" height="200" fill="white" rx="8" filter="drop-shadow(0 4px 6px rgba(0, 0, 0, 0.1))"/>
      <rect x="20" y="20" width="210" height="160" fill="url(#cardGradient)" rx="4"/>
      
      <!-- Right Card -->
      <g transform="translate(270, 0)">
        <rect width="250" height="200" fill="white" rx="8" filter="drop-shadow(0 4px 6px rgba(0, 0, 0, 0.1))"/>
        <rect x="20" y="20" width="210" height="160" fill="url(#cardGradient)" rx="4"/>
      </g>
    </g>
    
    <!-- Bottom Card -->
    <g transform="translate(0, 300)">
      <rect width="520" height="220" fill="white" rx="8" filter="drop-shadow(0 4px 6px rgba(0, 0, 0, 0.1))"/>
      <path d="M20 20 h480 v160 q-240 40 -480 0 Z" fill="url(#cardGradient)" rx="4"/>
    </g>
  </g>
  
  <!-- Decorative Elements -->
  <circle cx="700" cy="100" r="40" fill="url(#accentGradient)" opacity="0.1"/>
  <circle cx="650" cy="500" r="60" fill="url(#accentGradient)" opacity="0.05"/>
</svg> 