<svg width="600" height="400" viewBox="0 0 600 400" xmlns="http://www.w3.org/2000/svg">
  <!-- Gradients -->
  <defs>
    <linearGradient id="bgGradient" x1="0" y1="0" x2="1" y2="1">
      <stop offset="0%" stopColor="#F8FAFC"/>
      <stop offset="100%" stopColor="#F1F5F9"/>
    </linearGradient>
    <linearGradient id="cardGradient1" x1="0" y1="0" x2="0" y2="1">
      <stop offset="0%" stopColor="#EFF6FF"/>
      <stop offset="100%" stopColor="#DBEAFE"/>
    </linearGradient>
    <linearGradient id="cardGradient2" x1="0" y1="0" x2="0" y2="1">
      <stop offset="0%" stopColor="#3B82F6"/>
      <stop offset="100%" stopColor="#2563EB"/>
    </linearGradient>
  </defs>

  <!-- Background with curve -->
  <path d="M0 0 h600 v300 q-300 100 -600 0 Z" fill="url(#bgGradient)"/>
  
  <!-- Template Cards -->
  <g transform="translate(50, 50)">
    <!-- Card 1 -->
    <g filter="drop-shadow(0 4px 6px rgba(0, 0, 0, 0.1))">
      <rect width="150" height="200" fill="white" rx="8"/>
      <path d="M20 20 h110 v80 q-55 20 -110 0 Z" fill="url(#cardGradient1)" rx="4"/>
      <rect x="20" y="120" width="80" height="12" fill="#64748B" rx="2"/>
      <rect x="20" y="140" width="110" height="8" fill="#E2E8F0" rx="2"/>
    </g>
  </g>
  
  <!-- Selected Card -->
  <g transform="translate(225, 30)">
    <g filter="drop-shadow(0 8px 16px rgba(59, 130, 246, 0.2))">
      <rect width="150" height="220" fill="white" stroke="#3B82F6" strokeWidth="2" rx="8"/>
      <path d="M20 20 h110 v80 q-55 20 -110 0 Z" fill="url(#cardGradient2)" rx="4"/>
      <rect x="20" y="120" width="80" height="12" fill="#1E40AF" rx="2"/>
      <rect x="20" y="140" width="110" height="8" fill="#93C5FD" rx="2"/>
      <!-- Selection Indicator -->
      <circle cx="75" cy="180" r="12" fill="#3B82F6"/>
      <path d="M68 180 l5 5 l8 -8" stroke="white" strokeWidth="2" fill="none"/>
    </g>
  </g>
  
  <!-- Card 3 -->
  <g transform="translate(400, 50)">
    <g filter="drop-shadow(0 4px 6px rgba(0, 0, 0, 0.1))">
      <rect width="150" height="200" fill="white" rx="8"/>
      <path d="M20 20 h110 v80 q-55 20 -110 0 Z" fill="url(#cardGradient1)" rx="4"/>
      <rect x="20" y="120" width="80" height="12" fill="#64748B" rx="2"/>
      <rect x="20" y="140" width="110" height="8" fill="#E2E8F0" rx="2"/>
    </g>
  </g>

  <!-- Decorative Elements -->
  <circle cx="50" cy="350" r="30" fill="#3B82F6" opacity="0.1"/>
  <circle cx="550" cy="50" r="40" fill="#3B82F6" opacity="0.05"/>
</svg> 