<svg width="600" height="400" viewBox="0 0 600 400" xmlns="http://www.w3.org/2000/svg">
  <!-- Gradients -->
  <defs>
    <linearGradient id="bgGradient" x1="0" y1="0" x2="1" y2="1">
      <stop offset="0%" stopColor="#F8FAFC"/>
      <stop offset="100%" stopColor="#F1F5F9"/>
    </linearGradient>
    <linearGradient id="sidebarGradient" x1="0" y1="0" x2="0" y2="1">
      <stop offset="0%" stopColor="#1E293B"/>
      <stop offset="100%" stopColor="#0F172A"/>
    </linearGradient>
    <linearGradient id="contentGradient" x1="0" y1="0" x2="1" y2="1">
      <stop offset="0%" stopColor="#EFF6FF"/>
      <stop offset="100%" stopColor="#BFDBFE"/>
    </linearGradient>
    <linearGradient id="buttonGradient" x1="0" y1="0" x2="0" y2="1">
      <stop offset="0%" stopColor="#3B82F6"/>
      <stop offset="100%" stopColor="#2563EB"/>
    </linearGradient>
  </defs>

  <!-- Background with curve -->
  <path d="M0 0 h600 v300 q-300 100 -600 0 Z" fill="url(#bgGradient)"/>
  
  <!-- Editor Interface -->
  <g transform="translate(50, 50)">
    <!-- Sidebar with gradient -->
    <g filter="drop-shadow(0 4px 6px rgba(0, 0, 0, 0.1))">
      <path d="M0 0 h80 v300 q-40 20 -80 0 Z" fill="url(#sidebarGradient)" rx="8"/>
      <circle cx="40" cy="30" r="12" fill="url(#buttonGradient)"/>
      <rect x="20" y="60" width="40" height="8" fill="#64748B" rx="2" opacity="0.8"/>
      <rect x="20" y="80" width="40" height="8" fill="#64748B" rx="2" opacity="0.8"/>
      <rect x="20" y="100" width="40" height="8" fill="#64748B" rx="2" opacity="0.8"/>
    </g>
    
    <!-- Main Content -->
    <g transform="translate(100, 0)">
      <g filter="drop-shadow(0 4px 6px rgba(0, 0, 0, 0.1))">
        <rect width="400" height="300" fill="white" rx="8"/>
        
        <!-- Content Elements with curves -->
        <path d="M20 20 h360 v40 q-180 20 -360 0 Z" fill="url(#contentGradient)" rx="4"/>
        <path d="M20 80 h200 v20 q-100 10 -200 0 Z" fill="url(#contentGradient)" rx="4"/>
        <path d="M20 120 h360 v100 q-180 20 -360 0 Z" fill="url(#contentGradient)" rx="4"/>
        <rect x="20" y="240" width="120" height="40" fill="url(#buttonGradient)" rx="4"/>
      </g>
    </g>
  </g>

  <!-- Decorative Elements -->
  <circle cx="50" cy="350" r="30" fill="#3B82F6" opacity="0.1"/>
  <circle cx="550" cy="50" r="40" fill="#3B82F6" opacity="0.05"/>
</svg> 